<svg
          width="16"
          height="18"
          viewBox="0 0 16 18"
          fill="none"
          xmlns="http://www.w3.org/2000/svg"
        >
          <path
            d="M3.2002 5.5999V4.7999C3.2002 3.5269 3.70591 2.30667 4.60612 1.40646C5.50632 0.506253 6.72655 0.000534058 7.9996 0.000534058C9.27265 0.000534058 10.4929 0.506253 11.3931 1.40646C12.2933 2.30667 12.799 3.5269 12.799 4.7999V5.5999H15.1992C15.4107 5.5999 15.6135 5.6839 15.7635 5.83393C15.9136 5.98395 15.9976 6.18674 15.9976 6.3983V16.7965C15.9976 17.0081 15.9136 17.2109 15.7635 17.3609C15.6135 17.511 15.4107 17.595 15.1992 17.595H0.8C0.588442 17.595 0.385654 17.511 0.235626 17.3609C0.0855981 17.2109 0.00159836 17.0081 0.00159836 16.7965V6.3983C0.00159836 6.18674 0.0855981 5.98395 0.235626 5.83393C0.385654 5.6839 0.588442 5.5999 0.8 5.5999H3.2002ZM4.8004 5.5999H11.1991V4.7999C11.1991 3.95167 10.8622 3.13819 10.2625 2.53851C9.66283 1.93883 8.84935 1.60193 8.00112 1.60193C7.15289 1.60193 6.33941 1.93883 5.73973 2.53851C5.14005 3.13819 4.80315 3.95167 4.80315 4.7999L4.8004 5.5999Z"
            fill="white"
            fillOpacity="0.8"
          />
        </svg>
